<svg xmlns="http://www.w3.org/2000/svg" xmlns:xlink="http://www.w3.org/1999/xlink" viewBox="0 0 500 520" width="500" height="520">
  <defs>
    <!-- ChatGPT petal (one of 6, rotated around center 1203,1203) -->
    <path id="gpt-petal" d="M1107.3 299.1c-197.999 0-373.9 127.3-435.2 315.3L650 743.5v427.9c0 21.4 11 40.4 29.4 51.4l344.5 198.515V833.3h.1v-27.9L1372.7 604c33.715-19.52 70.44-32.857 108.47-39.828L1447.6 450.3C1361 353.5 1237.1 298.5 1107.3 299.1zm0 117.5-.6.6c79.699 0 156.3 27.5 217.6 78.4-2.5 1.2-7.4 4.3-11 6.1L952.8 709.3c-18.4 10.4-29.4 30-29.4 51.4V1248l-155.1-89.4V755.8c-.1-187.099 151.601-338.9 339-339.2z" fill="#fff"/>
  </defs>

  <!-- === LEASHES (drawn first, so they go behind the logos) === -->
  <!-- Left leash -->
  <path d="M 250,140 C 220,200 140,270 110,350" stroke="#8B7355" stroke-width="3" fill="none" stroke-linecap="round"/>
  <!-- Center leash -->
  <path d="M 250,140 C 250,210 250,280 250,350" stroke="#8B7355" stroke-width="3" fill="none" stroke-linecap="round"/>
  <!-- Right leash -->
  <path d="M 250,140 C 280,200 360,270 390,350" stroke="#8B7355" stroke-width="3" fill="none" stroke-linecap="round"/>

  <!-- === CLAUDE LOGO (the walker) — overlapping the leash origins === -->
  <g transform="translate(175,15) scale(3.797)">
    <path d="m7.75 26.27 7.77-4.36.13-.38-.13-.21h-.38l-1.3-.08-4.44-.12-3.85-.16-3.73-.2-.94-.2-.88-1.16.09-.58.79-.53 1.13.1 2.5.17 3.75.26 2.72.16 4.03.42h.64l.09-.26-.22-.16-.17-.16-3.88-2.63-4.2-2.78-2.2-1.6-1.19-.81-.6-.76-.26-1.66 1.08-1.19 1.45.1.37.1 1.47 1.13 3.14 2.43 4.1 3.02.6.5.24-.17.03-.12-.27-.45-2.23-4.03-2.38-4.1-1.06-1.7-.28-1.02c-.1-.42-.17-.77-.17-1.2l1.23-1.67.68-.22 1.64.22.69.6 1.02 2.33 1.65 3.67 2.56 4.99.75 1.48.4 1.37.15.42h.26v-.24l.21-2.81.39-3.45.38-4.44.13-1.25.62-1.5 1.23-.81.96.46.79 1.13-.11.73-.47 3.05-.92 4.78-.6 3.2h.35l.4-.4 1.62-2.15 2.72-3.4 1.2-1.35 1.4-1.49.9-.71h1.7l1.25 1.86-.56 1.92-1.75 2.22-1.45 1.88-2.08 2.8-1.3 2.24.12.18.31-.03 4.7-1 2.54-.46 3.03-.52 1.37.64.15.65-.54 1.33-3.24.8-3.8.76-5.66 1.34-.07.05.08.1 2.55.24 1.09.06h2.67l4.97.37 1.3.86.78 1.05-.13.8-2 1.02-2.7-.64-6.3-1.5-2.16-.54h-.3v.18l1.8 1.76 3.3 2.98 4.13 3.84.21.95-.53.75-.56-.08-3.63-2.73-1.4-1.23-3.17-2.67h-.21v.28l.73 1.07 3.86 5.8.2 1.78-.28.58-1 .35-1.1-.2-2.26-3.17-2.33-3.57-1.88-3.2-.23.13-1.11 11.95-.52.61-1.2.46-1-.76-.53-1.23.53-2.43.64-3.17.52-2.52.47-3.13.28-1.04-.02-.07-.23.03-2.36 3.24-3.59 4.85-2.84 3.04-.68.27-1.18-.61.11-1.09.66-.97 3.93-5 2.37-3.1 1.53-1.79-.01-.26h-.09l-10.44 6.78-1.86.24-.8-.75.1-1.23.38-.4 3.14-2.16z" fill="#d97757"/>
  </g>

  <!-- === THREE CHATGPT LOGOS (the "dogs" on leashes) === -->

  <!-- Left ChatGPT -->
  <g transform="translate(70,310) scale(0.03324)">
    <path d="M1 578.4C1 259.5 259.5 1 578.4 1h1249.1c319 0 577.5 258.5 577.5 577.4V2406H578.4C259.5 2406 1 2147.5 1 1828.6V578.4z" fill="#74aa9c"/>
    <use xlink:href="#gpt-petal"/>
    <use xlink:href="#gpt-petal" transform="rotate(60 1203 1203)"/>
    <use xlink:href="#gpt-petal" transform="rotate(120 1203 1203)"/>
    <use xlink:href="#gpt-petal" transform="rotate(180 1203 1203)"/>
    <use xlink:href="#gpt-petal" transform="rotate(240 1203 1203)"/>
    <use xlink:href="#gpt-petal" transform="rotate(300 1203 1203)"/>
  </g>

  <!-- Center ChatGPT -->
  <g transform="translate(210,310) scale(0.03324)">
    <path d="M1 578.4C1 259.5 259.5 1 578.4 1h1249.1c319 0 577.5 258.5 577.5 577.4V2406H578.4C259.5 2406 1 2147.5 1 1828.6V578.4z" fill="#74aa9c"/>
    <use xlink:href="#gpt-petal"/>
    <use xlink:href="#gpt-petal" transform="rotate(60 1203 1203)"/>
    <use xlink:href="#gpt-petal" transform="rotate(120 1203 1203)"/>
    <use xlink:href="#gpt-petal" transform="rotate(180 1203 1203)"/>
    <use xlink:href="#gpt-petal" transform="rotate(240 1203 1203)"/>
    <use xlink:href="#gpt-petal" transform="rotate(300 1203 1203)"/>
  </g>

  <!-- Right ChatGPT -->
  <g transform="translate(350,310) scale(0.03324)">
    <path d="M1 578.4C1 259.5 259.5 1 578.4 1h1249.1c319 0 577.5 258.5 577.5 577.4V2406H578.4C259.5 2406 1 2147.5 1 1828.6V578.4z" fill="#74aa9c"/>
    <use xlink:href="#gpt-petal"/>
    <use xlink:href="#gpt-petal" transform="rotate(60 1203 1203)"/>
    <use xlink:href="#gpt-petal" transform="rotate(120 1203 1203)"/>
    <use xlink:href="#gpt-petal" transform="rotate(180 1203 1203)"/>
    <use xlink:href="#gpt-petal" transform="rotate(240 1203 1203)"/>
    <use xlink:href="#gpt-petal" transform="rotate(300 1203 1203)"/>
  </g>

  <!-- Small collars where leashes meet the ChatGPT logos -->
  <circle cx="110" cy="350" r="5" fill="#8B7355" opacity="0.6"/>
  <circle cx="250" cy="350" r="5" fill="#8B7355" opacity="0.6"/>
  <circle cx="390" cy="350" r="5" fill="#8B7355" opacity="0.6"/>

  <!-- === TITLE === -->
  <text x="250" y="440" text-anchor="middle" font-family="monospace" font-weight="bold"
        font-size="42" fill="#2D2D2D" letter-spacing="5">cmcs</text>
  <text x="250" y="465" text-anchor="middle" font-family="monospace"
        font-size="11" fill="#888">claude-master / codex-slave</text>
</svg>